# xmcd
#
# Track frame offsets: 
#        150
#        26162
#        39885
#        58907
#        72970
#        77310
#        94112
#        114892
#        126552
#
# Disc length: 1979 seconds
#
# Revision: 5
# Processed by: cddbd v1.5.2PL0 Copyright (c) Steve Scherf et al.
# Submitted via: ExactAudioCopyFreeDBPlugin 1.0
#
DISCID=7007b909
DTITLE=Janis Joplin - Farewell Song
DYEAR=1982
DGENRE=Blues
TTITLE0=Tell Mama
TTITLE1=Magic of Love
TTITLE2=Misery 'N
TTITLE3=One Night Stand
TTITLE4=Harry
TTITLE5=Raise Your Hand
TTITLE6=Farewell Song
TTITLE7=Medley: Amazing Grace - Hi Heel Sneakers
TTITLE8=Catch Me Daddy
EXTD=© 1982 CBS Records   CK-37569
EXTT0=Live: Toronto, 6-28-70.
EXTT1=Live:  Grande Ballroom, Detroit, 3-1-68.
EXTT2=Columbia Studios:  New York, 4-1-68.
EXTT3=Columbia Studios:  Los Angeles, 3-28-70.
EXTT4=Columbia Studios:  New York, 6-68.
EXTT5=Live:  Frankfurt, West Germany, 4-12-69.
EXTT6=Live:  Winterland, San Francisco, 4-13-68.
EXTT7=Live:  The Matrix, San Francisco, 1-31-67.
EXTT8=Studio:  New York, 4-1-68.
PLAYORDER=
